<svg width="20" height="20" viewBox="0 0 20 20" fill="none" xmlns="http://www.w3.org/2000/svg">
<path fill-rule="evenodd" clip-rule="evenodd" d="M1 10C1 5.02944 5.02944 1 10 1C14.9706 1 19 5.02944 19 10C19 14.9706 14.9706 19 10 19C5.02944 19 1 14.9706 1 10ZM10 0C4.47715 0 0 4.47715 0 10C0 15.5228 4.47715 20 10 20C15.5228 20 20 15.5228 20 10C20 4.47715 15.5228 0 10 0ZM14.38 7.664V14H15.688V7.22L14.44 5.6H11.044L10.144 10.016L9.232 5.6H5.848L4.6 7.22V14H5.908V7.664L6.496 6.884H8.164L9.544 13.604H10.744L12.124 6.884H13.78L14.38 7.664Z" fill="black"/>
</svg>
