<svg width="49" height="49" viewBox="0 0 49 49" fill="none" xmlns="http://www.w3.org/2000/svg">
<path fill-rule="evenodd" clip-rule="evenodd" d="M1 24.25C1 11.4094 11.4094 1 24.25 1C37.0906 1 47.5 11.4094 47.5 24.25C47.5 37.0906 37.0906 47.5 24.25 47.5C11.4094 47.5 1 37.0906 1 24.25ZM24.25 0C10.8571 0 0 10.8571 0 24.25C0 37.6429 10.8571 48.5 24.25 48.5C37.6429 48.5 48.5 37.6429 48.5 24.25C48.5 10.8571 37.6429 0 24.25 0ZM35.2 18.41V34.25H38.47V17.3L35.35 13.25H26.86L24.61 24.29L22.33 13.25H13.87L10.75 17.3V34.25H14.02V18.41L15.49 16.46H19.66L23.11 33.26H26.11L29.56 16.46H33.7L35.2 18.41Z" fill="white"/>
</svg>
